<svg xmlns="http://www.w3.org/2000/svg" xmlns:xlink="http://www.w3.org/1999/xlink" viewBox="0 0 200 200"><defs><linearGradient id="Orange_Gelb" x1="139.84052" y1="293.14853" x2="273.15124" y2="293.14853" gradientTransform="translate(-99.35706 -206.69525) rotate(3.11195)" gradientUnits="userSpaceOnUse"><stop offset="0" stop-color="#ffef26"/><stop offset="0.01783" stop-color="#ffea21"/><stop offset="0.10197" stop-color="#fed70f"/><stop offset="0.18859" stop-color="#fdcc04"/><stop offset="0.2809" stop-color="#fdc800"/><stop offset="0.66854" stop-color="#f18f34"/><stop offset="0.88764" stop-color="#e95f32"/><stop offset="1" stop-color="#e3312d"/></linearGradient></defs><g id="Favicon_colored" data-name="Favicon colored"><path d="M123.84751,39.24544c-.47417,1.59435-.6668,2.512-.76176,2.94409-.05144.23409-.09957.46785-.1431.70354l-.41569,2.2506a41.70187,41.70187,0,0,1-1.65024,6.20955l-.29519.84286a12.50944,12.50944,0,0,1-4.34114,5.903l-14.289,10.627a19.56249,19.56249,0,0,0-5.4895,6.31126l-.04085.0747a32.23976,32.23976,0,0,0-3.52087,10.18088l-.00027.0016a7.6349,7.6349,0,0,0,.071,2.87751l.00279.01845.5577,6.53754.00323.022c.08007.3672.30579,1.483-.055,1.4634l-7.96516-.747c-1.7503-.13454-6.358.62729-8.11036.88339a.17589.17589,0,0,0-.02819.00651L75.45,96.96149a12.40251,12.40251,0,0,0-5.4432,3.47177h0l-4.01871,4.79311a12.74382,12.74382,0,0,1-3.06679,2.65346l-1.46664.90624c-2.241,1.38469-4.158,2.31641-5.42267,4.61991a.20894.20894,0,0,0-.02.052l-.42354,1.78946a7.48277,7.48277,0,0,0-.17572,1.10688l-.18838,2.27884a6.26568,6.26568,0,0,0,.005,1.08985l.18455,2.007a3.16825,3.16825,0,0,1-.18667,1.39792l-.4778,1.28027a2.1797,2.1797,0,0,1-1.4661,1.34006l-5.29826,1.45173c-1.85576.50848-3.7769,1.44071-4.5221,3.21119a.21875.21875,0,0,0-.015.05543l-.103.76355c-.10776.808.16392.8629.21186,1.50946l.19481,3.77666a.20129.20129,0,0,1-.00594.05912,8.58556,8.58556,0,0,1-2.88388,5.07234.20573.20573,0,0,1-.05053.03022l-10.20275,4.244-.00932.00359-7.38824,2.62494a3.05131,3.05131,0,0,0-1.52064,1.18767l-.38387.57825a.18917.18917,0,0,0,.04087.25347l1.6523,1.29575a.18917.18917,0,0,0,.10646.04l17.855.97072a.18907.18907,0,0,1,.06523.01544l8.01316,3.48785,5.77689,2.21646a.18908.18908,0,0,0,.07963.01218l9.70019-.60992a.18912.18912,0,0,1,.10956.0268l5.86823,3.53875a.18881.18881,0,0,0,.031.015l3.497,1.317a.18912.18912,0,0,0,.10716.00776l42.88309-9.39659a.18917.18917,0,0,1,.19495.294l-8.06959,11.41218a8.68167,8.68167,0,0,0-1.18461,2.38061l-.51342,1.614c-.35211,1.1069-.88523,3.59923.21023,3.26381l.40571-.10624a2.89519,2.89519,0,0,0,.92046-.42446l14.66685-9.61788a19.35849,19.35849,0,0,0,3.28064-2.88379l3.32858-4.018a5.69834,5.69834,0,0,0,1.30307-2.87079,2.8558,2.8558,0,0,1,.386-1.068l.01589-.02614a.78872.78872,0,0,1,.6648-.379l4.14427.25416c-1.65008-.08575.14584-.03689.99191-.11127a.18724.18724,0,0,0,.04339-.00913l4.0176-1.32647a4.01625,4.01625,0,0,0,2.11681-1.6382l.0144-.02568,1.28309-2.64559a4.45428,4.45428,0,0,0,.333-.94478l.38693-1.68119c.13964-.43122.28746-.59081.81635-.33863l2.06039.85409a2.04893,2.04893,0,0,0,1.92051-.16716l.25846-.22326a6.26112,6.26112,0,0,0,1.36795-3.17284,2.12927,2.12927,0,0,0-.03526-.82325l-.249-1.00818a2.63806,2.63806,0,0,0-1.2134-1.62748,4.72552,4.72552,0,0,0-2.8175-.46411,3.28341,3.28341,0,0,0-.86787.207l-.02639.012-.82259.42955a2.73314,2.73314,0,0,0-.92013.77983l-.50133.9401c-.18641.7452-.8951.643-1.38764.35431a.157.157,0,0,0-.03432-.015l-1.497-.45033a4.92623,4.92623,0,0,0-2.51286.01555.236.236,0,0,0-.031.01079l-1.26419.53986a.31784.31784,0,0,1-.35471-.47308l5.88762-9.29233a26.46914,26.46914,0,0,0,2.39929-4.80471l7.40641-19.58692a62.062,62.062,0,0,0,1.84191-6.84146,57.99846,57.99846,0,0,0,1.21923-5.9976l1.66715-8.56851.00224-.01383a91.45193,91.45193,0,0,0-.08564-16.41666l-1.29621-10.58351-.00551-.02768L153.0287,42.063c-.27639-.90519-2.22677-4.71828-2.42574-5.65579a.16207.16207,0,0,0-.01846-.04843L147.485,30.89713a16.13642,16.13642,0,0,0-3.17361-3.93344.21374.21374,0,0,0-.02379-.0179l-.66062-.43009-.01786-.01064a10.37561,10.37561,0,0,0-5.48013-.9655l-.02353.00343-2.68373.53448a10.61537,10.61537,0,0,0-5.423,2.89494l-.01529.01525A24.27635,24.27635,0,0,0,123.84751,39.24544Z" style="fill:url(#Orange_Gelb)"/><path d="M168.3361,132.67106l-.60463-.03287-.71056,3.08931-1.20621,1.0514-.91873.46089-1.182.60585-1.24632.028s-3.53655-.7029-3.63029-.74c-.09375-.03687-4.83786-.8374-4.83786-.8374l-.46179-.3125,2.989-.38011,5.19348-.41973,1.72817-.67209,1.2958-1.52539s.66866-1.14459.67385-1.24.293-1.86731.293-1.86731l-.33239-1.51818-.77552-.99967-.66829-.03634-.2366.24256.37737.69062.48735,1.016.2525,1.22666-.347,1.09833-.32448.68444-.81307.86554-.94208.8903-1.22141.157s-1.44419.14492-1.63685.16642c-.19267.0213-3.23321.17516-3.23321.17516l-1.53445.04429s-1.61368.32716-1.77453.3504-1.45628.3677-1.55347.39419a2.76215,2.76215,0,0,0-.44258.32246l-1.00149.50751s2.06234,2.07826,2.08565,1.86219c.13271-1.22969,1.17441-.86988,1.17441-.86988l3.18888.63982,4.66423,1.09579,1.94125.10554,1.60674-.19984,1.67841-.931,1.01349-1.02928.92844-1.22619.43176-2.65759S168.4634,132.678,168.3361,132.67106Z" style="fill:#e94e1b"/></g></svg>